<svg width="20" height="24" viewBox="0 0 41 41" fill="none" xmlns="http://www.w3.org/2000/svg">
<path d="M37.0281 25.0523L34.4055 22.8102C34.5296 22.0494 34.5937 21.2727 34.5937 20.4959C34.5937 19.7191 34.5296 18.9424 34.4055 18.1816L37.0281 15.9395C37.2259 15.7701 37.3675 15.5446 37.434 15.2928C37.5005 15.0411 37.4888 14.775 37.4004 14.5301L37.3644 14.426C36.6424 12.4081 35.5613 10.5375 34.1733 8.90459L34.1012 8.82051C33.9328 8.62252 33.7084 8.4802 33.4576 8.4123C33.2067 8.3444 32.9411 8.3541 32.6959 8.44014L29.4407 9.59727C28.2395 8.6123 26.8982 7.83555 25.4488 7.29102L24.8202 3.8877C24.7727 3.63161 24.6485 3.39603 24.464 3.21223C24.2795 3.02843 24.0434 2.90512 23.7872 2.85869L23.6791 2.83867C21.593 2.4623 19.3989 2.4623 17.3128 2.83867L17.2047 2.85869C16.9485 2.90512 16.7124 3.02843 16.5279 3.21223C16.3434 3.39603 16.2192 3.63161 16.1717 3.8877L15.5391 7.30703C14.1013 7.85168 12.7623 8.62802 11.5753 9.60527L8.29605 8.44014C8.05088 8.35342 7.78512 8.34337 7.53409 8.41131C7.28306 8.47925 7.05865 8.62197 6.89068 8.82051L6.81861 8.90459C5.43224 10.5387 4.35131 12.409 3.6275 14.426L3.59146 14.5301C3.41129 15.0306 3.55943 15.5911 3.96383 15.9395L6.61842 18.2057C6.4943 18.9584 6.43424 19.7271 6.43424 20.4919C6.43424 21.2606 6.4943 22.0294 6.61842 22.7781L3.96383 25.0443C3.76602 25.2137 3.62444 25.4392 3.55793 25.691C3.49141 25.9427 3.50311 26.2088 3.59146 26.4537L3.6275 26.5578C4.35221 28.5758 5.42525 30.4376 6.81861 32.0792L6.89068 32.1633C7.05906 32.3613 7.28348 32.5036 7.53436 32.5715C7.78524 32.6394 8.0508 32.6297 8.29605 32.5437L11.5753 31.3785C12.7684 32.3595 14.1017 33.1362 15.5391 33.6768L16.1717 37.0961C16.2192 37.3522 16.3434 37.5878 16.5279 37.7716C16.7124 37.9554 16.9485 38.0787 17.2047 38.1251L17.3128 38.1451C19.4181 38.5235 21.5739 38.5235 23.6791 38.1451L23.7872 38.1251C24.0434 38.0787 24.2795 37.9554 24.464 37.7716C24.6485 37.5878 24.7727 37.3522 24.8202 37.0961L25.4488 33.6928C26.8976 33.1497 28.2465 32.3704 29.4407 31.3865L32.6959 32.5437C32.941 32.6304 33.2068 32.6404 33.4578 32.5725C33.7088 32.5045 33.9333 32.3618 34.1012 32.1633L34.1733 32.0792C35.5667 30.4336 36.6397 28.5758 37.3644 26.5578L37.4004 26.4537C37.5806 25.9612 37.4325 25.4007 37.0281 25.0523V25.0523ZM31.5628 18.6541C31.6628 19.2587 31.7149 19.8793 31.7149 20.4999C31.7149 21.1205 31.6628 21.7411 31.5628 22.3457L31.2985 23.9513L34.2894 26.5098C33.836 27.5543 33.2637 28.5432 32.5837 29.4566L28.8681 28.1394L27.6109 29.1724C26.654 29.9571 25.5889 30.5737 24.4358 31.0062L22.9103 31.5787L22.1936 35.4625C21.0628 35.5906 19.9211 35.5906 18.7903 35.4625L18.0736 31.5707L16.5601 30.9901C15.419 30.5577 14.358 29.9411 13.409 29.1604L12.1518 28.1233L8.41217 29.4526C7.7315 28.5357 7.16295 27.5468 6.7065 26.5058L9.72945 23.9232L9.4692 22.3217C9.3731 21.7251 9.32105 21.1085 9.32105 20.4999C9.32105 19.8873 9.3691 19.2747 9.4692 18.6781L9.72945 17.0766L6.7065 14.494C7.15894 13.449 7.7315 12.4641 8.41217 11.5472L12.1518 12.8765L13.409 11.8395C14.358 11.0587 15.419 10.4421 16.5601 10.0097L18.0776 9.43711L18.7943 5.54531C19.9194 5.41719 21.0685 5.41719 22.1976 5.54531L22.9143 9.4291L24.4398 10.0017C25.5889 10.4341 26.658 11.0507 27.6149 11.8354L28.8721 12.8685L32.5878 11.5512C33.2684 12.4681 33.837 13.457 34.2934 14.498L31.3025 17.0565L31.5628 18.6541ZM20.5 13.0526C16.6082 13.0526 13.4531 16.2077 13.4531 20.0995C13.4531 23.9913 16.6082 27.1464 20.5 27.1464C24.3918 27.1464 27.5468 23.9913 27.5468 20.0995C27.5468 16.2077 24.3918 13.0526 20.5 13.0526ZM23.6711 23.2706C23.2551 23.6877 22.7608 24.0185 22.2166 24.2439C21.6724 24.4692 21.089 24.5848 20.5 24.5839C19.3028 24.5839 18.1777 24.1154 17.3289 23.2706C16.9118 22.8547 16.581 22.3604 16.3556 21.8162C16.1302 21.272 16.0147 20.6886 16.0156 20.0995C16.0156 18.9023 16.484 17.7772 17.3289 16.9284C18.1777 16.0796 19.3028 15.6151 20.5 15.6151C21.6971 15.6151 22.8222 16.0796 23.6711 16.9284C24.0882 17.3443 24.4189 17.8386 24.6443 18.3828C24.8697 18.9271 24.9853 19.5105 24.9843 20.0995C24.9843 21.2967 24.5159 22.4218 23.6711 23.2706Z" fill="#D9D9D9"/>
</svg>
