<?xml version="1.0" encoding="UTF-8"?>
<!DOCTYPE svg PUBLIC "-//W3C//DTD SVG 1.1//EN" "http://www.w3.org/Graphics/SVG/1.1/DTD/svg11.dtd">
<!-- Creator: CorelDRAW X7 -->
<svg xmlns="http://www.w3.org/2000/svg" xml:space="preserve" width="210mm" height="297mm" version="1.1" style="shape-rendering:geometricPrecision; text-rendering:geometricPrecision; image-rendering:optimizeQuality; fill-rule:evenodd; clip-rule:evenodd"
viewBox="0 0 21000 29700"
 xmlns:xlink="http://www.w3.org/1999/xlink">
 <defs>
  <style type="text/css">
   <![CDATA[
    .fil1 {fill:black}
    .fil5 {fill:#42B139}
    .fil11 {fill:#4A5962}
    .fil9 {fill:#523A27}
    .fil10 {fill:#574333}
    .fil12 {fill:#607682}
    .fil8 {fill:#667D8A}
    .fil13 {fill:#714F30}
    .fil14 {fill:#898989}
    .fil4 {fill:#9DD8F5}
    .fil3 {fill:#F18336}
    .fil6 {fill:#F39B42}
    .fil2 {fill:#F5AE1A}
    .fil0 {fill:#FED000}
    .fil7 {fill:#FEFEFE}
   ]]>
  </style>
 </defs>
 <g id="Layer_x0020_1">
  <metadata id="CorelCorpID_0Corel-Layer"/>
  <g id="_2050712044464">
   <path class="fil0" d="M7360 16282c80,-25 994,-7 1158,-7 738,0 6037,-9 6108,2 91,15 108,86 107,182l0 1160c0,592 86,494 -667,494 -942,0 -6597,10 -6685,-2 -93,-13 -112,-83 -112,-179l0 -1454c0,-106 2,-167 91,-196zm1832 -2502c68,-22 766,-8 899,-8 569,0 528,-58 528,388l0 1361c0,470 82,370 -997,370 -566,0 -521,56 -521,-388l0 -1362c0,-148 -36,-319 91,-361zm2282 1c65,-22 768,-9 899,-9 572,0 529,-57 529,388l0 1361c0,138 35,328 -92,364 -84,23 -763,6 -906,6 -563,0 -521,57 -521,-388l0 -1362c0,-148 -36,-317 91,-360zm2281 0c38,-13 1295,-21 1350,2 60,24 79,75 79,156l-1 1582c0,471 85,370 -998,370 -350,0 -521,56 -520,-167l0 -1583c0,-184 -33,-317 90,-360zm-6845 -1c74,-23 762,-8 900,-8 572,0 527,-57 527,388l0 1361c0,129 36,328 -90,364 -48,13 -1301,17 -1355,-7 -108,-47 -74,-247 -74,-375l0 -1362c0,-147 -36,-320 92,-361zm4583 -2759c58,-12 775,-4 898,-4 554,0 511,-56 511,401l0 1371c0,416 28,347 -566,347 -119,0 -835,16 -890,-18 -98,-62 -63,-258 -63,-384l0 -1371c0,-158 -38,-311 110,-342zm2282 0c73,-16 351,-4 447,-4 124,0 830,-13 892,15 101,48 69,250 69,386l0 1371c0,416 29,347 -565,347 -120,0 -834,16 -890,-18 -98,-62 -63,-259 -63,-384l0 -1371c0,-158 -37,-310 110,-342zm-4564 0c58,-12 775,-4 899,-4 369,0 511,-55 509,180l0 1592c0,416 28,347 -564,347 -119,0 -837,16 -891,-18 -99,-61 -63,-260 -63,-384l0 -1371c0,-148 -39,-312 110,-342zm-2281 0c59,-12 773,-4 898,-4 373,0 510,-54 509,180l0 1592c0,145 35,321 -108,345 -64,11 -775,2 -907,2 -554,0 -504,54 -504,-402l0 -1371c0,-146 -38,-313 112,-342zm-342 -626l-3 11559 2420 -1c0,-909 0,-1816 0,-2724 0,-113 -17,-601 14,-668 42,-89 152,-70 272,-70l3413 0c358,0 293,-29 293,729 0,911 0,1822 0,2733l2420 0 -3 -11558 -906 -394c-306,-131 -611,-264 -918,-397 -115,-50 -155,-35 -288,-35l-4756 -1c-66,0 -79,12 -132,35 -445,191 -927,410 -1367,592l-459 200z"/>
   <path class="fil1" d="M11129 18750l39 -1 1536 0 36 2 0 3201 -1611 1 0 -3203zm-1866 -1l1610 2 0 3202 -1611 -1 1 -3203zm-3502 653l1 2554c-86,0 -265,10 -335,-13 -42,-14 -84,-35 -118,-56 -35,-22 -68,-57 -118,-51 -70,9 -279,141 -557,-19 -134,-77 -255,-211 -290,-410 -39,-223 51,-403 159,-517 30,-31 61,-50 97,-78 110,-88 -31,-175 50,-438 86,-279 332,-427 623,-411 138,7 116,-94 148,-197 48,-154 195,-324 340,-364zm10477 0c139,31 285,204 334,338 33,91 20,208 118,222 41,6 95,-5 148,0 332,32 554,301 539,628 -6,148 -68,150 54,241 278,207 327,650 51,903 -113,103 -287,187 -499,152 -100,-16 -170,-80 -250,-27 -62,40 -139,97 -238,97l-256 -3 -1 -2551zm-9653 2552l-566 -3 1 -11312 568 -244 459 -200c440,-182 922,-401 1367,-592 53,-23 66,-35 132,-35l4756 1c133,0 173,-15 288,35 307,133 612,266 918,397l906 394 567 243 3 11316 -567 -1 -2420 0c0,-911 0,-1822 0,-2733 0,-758 65,-729 -293,-729l-3413 0c-120,0 -230,-19 -272,70 -31,67 -14,555 -14,668 0,908 0,1815 0,2724l-2420 1zm-827 -2771c-95,8 -280,134 -352,209 -59,62 -131,170 -162,252 -13,36 -22,77 -38,109 -435,0 -791,355 -791,801 0,61 9,79 9,138 -31,8 -90,73 -111,99 -210,260 -248,634 -80,911 107,176 194,212 219,250 -76,0 -398,-14 -453,16 -91,50 -92,218 45,245 59,11 1682,10 1787,4l663 2c3748,0 7495,0 11242,0 124,0 332,35 332,-138 0,-126 -115,-129 -193,-129 -108,0 -215,0 -323,0 35,-51 322,-214 322,-662 0,-216 -139,-517 -294,-598 0,-143 33,-263 -58,-458 -22,-46 -41,-83 -68,-125 -51,-83 -116,-145 -193,-202 -134,-101 -289,-154 -472,-154 -2,-70 -49,-149 -77,-199 -92,-165 -276,-327 -466,-371l0 -8234c0,-562 68,-445 -353,-632l-687 -297c-184,-81 -369,-159 -552,-239l-1103 -470 -5097 0c-30,0 -234,93 -276,111 -223,98 -618,258 -822,356l-1367 592c-286,125 -231,59 -231,561l0 8252z"/>
   <polygon class="fil2" points="6585,21954 6588,10395 6020,10639 6019,21951 "/>
   <polygon class="fil2" points="15417,21953 15984,21954 15981,10638 15414,10395 "/>
   <path class="fil3" d="M13063 16753l197 1 0 732 500 5 -1 137c-8,24 13,10 -24,17l-138 -1c-127,0 -454,7 -539,-2 -15,-48 -7,-674 -7,-833 0,-3 0,-27 0,-28 5,-31 0,-14 12,-28zm-4620 340l392 2 0 -345c44,-16 158,-11 207,-4 9,82 10,851 -4,896l-179 0c-21,-4 -5,0 -20,-9l-2 -380 -393 -4 -1 389 -201 2 0 -892 199 -1 2 346zm1966 121c-20,303 -211,458 -511,443 -291,-14 -470,-190 -455,-498 14,-282 219,-445 517,-428 275,15 469,193 449,483zm2231 276c9,14 9,5 10,45l-4 106 -756 2c-15,-49 -13,-810 -4,-898 86,-8 678,-11 741,3l1 149c-137,28 -407,-22 -538,9l0 186 499 4 0 149 -499 4 0 239 550 2zm-1411 -587l-1 737 -193 -2c-2,-2 -4,-7 -4,-6l-7 -731 -293 -1 -2 -152c47,-12 733,-12 796,-1l1 151 -297 5zm3237 -369c3,48 8,106 -4,152 -1156,4 -2313,0 -3469,0 -158,0 -3401,13 -3466,-6l0 -147 -2 1321 6950 1c15,-148 2,-893 2,-1156l1 -129c-5,-48 2,-19 -12,-36z"/>
   <path class="fil4" d="M10210 20369l-135 132c-89,92 -151,0 -103,-57 37,-45 92,-89 134,-134 90,-95 139,14 104,59zm-81 -220l-289 291c-60,42 -115,-16 -87,-68 13,-24 161,-164 192,-195 27,-27 69,-77 95,-98 60,-49 122,17 89,70zm-273 -167c27,-11 133,16 21,127 -24,23 -117,123 -139,131 -47,17 -80,-11 -78,-54 3,-42 172,-194 196,-204zm-594 1970l1611 1 0 -3202 -1610 -2 -1 3203z"/>
   <path class="fil4" d="M12224 20284c41,-24 85,-7 87,40 3,41 -28,62 -49,82 -21,21 -114,119 -132,127 -53,22 -139,-25 -39,-123 37,-36 94,-104 133,-126zm-82 -212c63,-32 109,28 73,84l-291 290c-65,33 -108,-33 -76,-86l294 -288zm-213 -83c38,-27 85,-3 88,41 3,55 -182,208 -182,208 -45,20 -82,-5 -84,-45 -3,-41 26,-54 49,-75 32,-29 91,-103 129,-129zm-800 1964l1611 -1 0 -3201 -36 -2 -1536 0 -39 1 0 3203z"/>
   <path class="fil1" d="M7527 16533l6939 1c14,17 7,-12 12,36l-1 129c0,263 13,1008 -2,1156l-6950 -1 2 -1321zm-167 -251c-89,29 -91,90 -91,196l0 1454c0,96 19,166 112,179 88,12 5743,2 6685,2 753,0 667,98 667,-494l0 -1160c1,-96 -16,-167 -107,-182 -71,-11 -5370,-2 -6108,-2 -164,0 -1078,-18 -1158,7z"/>
   <path class="fil5" d="M16239 21953l256 3c99,0 176,-57 238,-97 80,-53 150,11 250,27 212,35 386,-49 499,-152 276,-253 227,-696 -51,-903 -122,-91 -60,-93 -54,-241 15,-327 -207,-596 -539,-628 -53,-5 -107,6 -148,0 -98,-14 -85,-131 -118,-222 -49,-134 -195,-307 -334,-338l1 2551z"/>
   <path class="fil5" d="M5761 19402c-145,40 -292,210 -340,364 -32,103 -10,204 -148,197 -291,-16 -537,132 -623,411 -81,263 60,350 -50,438 -36,28 -67,47 -97,78 -108,114 -198,294 -159,517 35,199 156,333 290,410 278,160 487,28 557,19 50,-6 83,29 118,51 34,21 76,42 118,56 70,23 249,13 335,13l-1 -2554z"/>
   <path class="fil1" d="M11641 14030l1002 0 0 1603 -1002 -4 0 -1599zm-167 -249c-127,43 -91,212 -91,360l0 1362c0,445 -42,388 521,388 143,0 822,17 906,-6 127,-36 92,-226 92,-364l0 -1361c0,-445 43,-388 -529,-388 -131,0 -834,-13 -899,9z"/>
   <path class="fil1" d="M13923 14030l1004 4 0 1599 -1005 -4 1 -1599zm-168 -249c-123,43 -90,176 -90,360l0 1583c-1,223 170,167 520,167 1083,0 998,101 998,-370l1 -1582c0,-81 -19,-132 -79,-156 -55,-23 -1312,-15 -1350,-2z"/>
   <path class="fil1" d="M9359 14030l1003 0 -1 1603 -1003 -3 1 -1600zm-167 -250c-127,42 -91,213 -91,361l0 1362c0,444 -45,388 521,388 1079,0 997,100 997,-370l0 -1361c0,-446 41,-388 -528,-388 -133,0 -831,-14 -899,8z"/>
   <path class="fil1" d="M7076 14030l1004 0 0 1603 -1005 -1 1 -1602zm-166 -250c-128,41 -92,214 -92,361l0 1362c0,128 -34,328 74,375 54,24 1307,20 1355,7 126,-36 90,-235 90,-364l0 -1361c0,-445 45,-388 -527,-388 -138,0 -826,-15 -900,8z"/>
   <path class="fil1" d="M12643 11281l-3 1598 -986 0c-21,-13 -16,10 -18,-43l5 -1561c113,-18 373,-3 502,-3l478 0c16,3 15,5 22,9zm-1150 -260c-148,31 -110,184 -110,342l0 1371c0,126 -35,322 63,384 55,34 771,18 890,18 594,0 566,69 566,-347l0 -1371c0,-457 43,-401 -511,-401 -123,0 -840,-8 -898,4z"/>
   <path class="fil1" d="M7074 11283c15,-26 81,-14 110,-14 159,0 850,-9 897,6l5 1561c-1,49 -6,36 -15,43l-994 0 -3 -1596zm-144 -262c-150,29 -112,196 -112,342l0 1371c0,456 -50,402 504,402 132,0 843,9 907,-2 143,-24 108,-200 108,-345l0 -1592c1,-234 -136,-180 -509,-180 -125,0 -839,-8 -898,4z"/>
   <path class="fil1" d="M14914 12879l-978 0c-24,-9 -18,12 -17,-90 1,-229 -10,-1447 4,-1514l1004 -3c15,68 3,1287 5,1517 0,106 5,76 -18,90zm-1139 -1858c-147,32 -110,184 -110,342l0 1371c0,125 -35,322 63,384 56,34 770,18 890,18 594,0 565,69 565,-347l0 -1371c0,-136 32,-338 -69,-386 -62,-28 -768,-15 -892,-15 -96,0 -374,-12 -447,4z"/>
   <path class="fil1" d="M9359 11274l1003 -2 3 1605c-42,13 -930,14 -1009,3 -11,-100 -7,-1563 3,-1606zm-148 -253c-149,30 -110,194 -110,342l0 1371c0,124 -36,323 63,384 54,34 772,18 891,18 592,0 564,69 564,-347l0 -1592c2,-235 -140,-180 -509,-180 -124,0 -841,-8 -899,4z"/>
   <path class="fil4" d="M7847 14943l-135 131c-81,82 -146,12 -112,-47 9,-16 113,-118 132,-135 19,-18 39,-55 85,-44 38,9 55,60 30,95zm-89 -298c40,81 -24,112 -134,221 -80,79 -165,200 -225,146 -62,-55 59,-145 129,-215 34,-34 62,-62 96,-96 39,-38 56,-79 134,-56zm-266 -90c35,-14 68,10 71,47 4,56 -187,211 -193,213 -40,13 -70,-13 -73,-49 -3,-47 28,-55 55,-80 38,-35 98,-114 140,-131zm-417 1077l1005 1 0 -1603 -1004 0 -1 1602z"/>
   <path class="fil4" d="M10129 14943l-135 131c-75,75 -146,21 -112,-47 11,-24 105,-110 131,-137 100,-105 154,4 116,53zm-89 -299c35,69 1,88 -37,126 -35,34 -63,62 -97,97 -75,75 -160,192 -220,150 -75,-54 56,-151 128,-224 35,-34 63,-62 97,-96 37,-38 55,-75 129,-53zm-282 -83c51,-28 147,16 38,122 -22,22 -113,119 -133,127 -47,21 -81,-5 -84,-44 -3,-58 164,-197 179,-205zm-400 1069l1003 3 1 -1603 -1003 0 -1 1600z"/>
   <path class="fil4" d="M7847 12053c-38,44 -92,88 -135,133 -18,19 -38,53 -83,40 -121,-36 75,-188 106,-220 101,-106 148,5 112,47zm-84 -212l-294 294c-56,31 -110,-22 -78,-77l294 -296c52,-33 121,27 78,79zm-209 -159c17,57 11,65 -25,99 -24,23 -42,40 -65,64 -23,23 -106,137 -157,66 -40,-57 60,-128 86,-155 43,-42 81,-111 161,-74zm517 1197c15,-68 4,-1483 6,-1600l-1003 4 3 1596 994 0z"/>
   <path class="fil4" d="M14692 14858c36,85 -38,122 -82,168 -27,26 -96,119 -151,75 -68,-55 46,-138 71,-164 45,-44 79,-112 162,-79zm-157 -213c62,-33 109,27 73,85 -11,18 -76,77 -96,97 -28,29 -175,182 -195,192 -64,31 -109,-32 -76,-86 11,-19 76,-77 96,-98 44,-45 152,-165 198,-190zm-137 -81c22,54 15,69 -19,102 -66,65 -157,186 -214,141 -69,-55 46,-139 71,-164 46,-45 78,-114 162,-79zm-476 1065l1005 4 0 -1599 -1004 -4 -1 1599z"/>
   <path class="fil4" d="M14626 11967c36,-18 78,4 78,49 0,38 -34,61 -53,80 -20,19 -115,120 -131,127 -39,16 -80,-6 -80,-50 0,-49 184,-205 186,-206zm-81 -210c59,-26 101,41 55,94l-293 288c-61,25 -106,-41 -58,-96 26,-32 66,-66 97,-96 34,-35 166,-176 199,-190zm-138 -67c11,79 -65,124 -106,165 -20,20 -116,142 -154,43 -19,-51 76,-123 102,-149 88,-87 83,-107 158,-59zm-471 1189l978 0c24,-65 8,-1406 9,-1597l-995 0c0,196 -18,1524 8,1597z"/>
   <path class="fil4" d="M12335 14856c41,-23 84,-5 87,40 5,63 -182,210 -187,212 -42,16 -72,-10 -78,-41 -11,-61 168,-204 178,-211zm-82 -211c62,-33 108,27 73,84 -11,18 -76,78 -96,98 -29,29 -175,181 -195,192 -65,31 -109,-32 -76,-86 11,-19 76,-78 96,-98 43,-44 154,-166 198,-190zm-213 -83c42,-23 84,-6 87,40 4,58 -182,208 -182,208 -47,20 -81,-5 -83,-44 -4,-58 161,-195 178,-204zm-399 1067l1002 4 0 -1603 -1002 0 0 1599z"/>
   <path class="fil4" d="M12413 11976c27,82 -45,120 -90,165 -24,24 -106,138 -157,63 -38,-55 60,-125 87,-152 47,-47 77,-113 160,-76zm-150 -220c54,-23 104,41 56,96l-294 286c-58,25 -108,-37 -58,-96l296 -286zm-213 -84c36,-17 143,11 24,128 -19,18 -119,124 -138,130 -42,14 -74,-16 -74,-52 -1,-49 181,-203 188,-206zm-396 1207l986 0 3 -1598 -997 0 0 8c0,267 0,534 0,801 0,118 -13,726 8,789z"/>
   <path class="fil4" d="M9904 12227c-66,-75 1,-109 44,-152 26,-26 99,-121 150,-112 35,6 57,41 34,83l-133 135c-29,30 -34,50 -95,46zm142 -386l-291 290c-54,38 -119,-14 -79,-79l291 -290c62,-39 113,34 79,79zm-212 -82c-34,41 -94,91 -134,132 -18,19 -39,53 -83,40 -120,-37 71,-187 104,-221 101,-102 151,3 113,49zm-472 1117l12 0 980 0 0 -1594 -992 0 0 1594z"/>
   <path class="fil6" d="M14466 16534l-6939 -1 0 147c65,19 3308,6 3466,6 1156,0 2313,4 3469,0 12,-46 7,-104 4,-152z"/>
   <path class="fil1" d="M9199 8253c-179,0 -326,10 -506,10 20,30 358,265 396,285l-112 358c-12,37 -32,84 -35,129 119,-79 265,-204 386,-285 39,11 73,45 107,68l206 144c37,25 69,52 110,73l-77 -235c-27,-68 -63,-164 -79,-234 33,-9 390,-283 404,-303l-487 0c-35,-73 -139,-443 -175,-470 -3,38 -22,78 -33,114l-70 225c-10,35 -32,83 -35,121z"/>
   <path class="fil1" d="M10855 8253c-179,0 -326,10 -506,10 20,30 62,48 93,72l199 142c33,24 70,53 104,71 -16,34 -27,78 -38,118l-110 369 387 -285c48,13 344,244 423,285 -26,-110 -140,-398 -156,-469 21,-5 382,-270 404,-303l-487 0 -84 -238c-13,-38 -25,-75 -39,-118 -14,-42 -21,-91 -52,-114 -2,31 -21,86 -31,117 -13,40 -25,69 -37,110 -24,82 -52,155 -70,233z"/>
   <path class="fil1" d="M12667 7810l-18 2 -138 441c-179,0 -326,10 -506,10 22,29 361,262 396,285l-148 487c120,-79 285,-216 387,-285 46,11 360,244 423,285 -18,-76 -153,-436 -147,-460 23,-34 151,-122 194,-155 39,-29 183,-129 201,-157l-487 0c-38,-80 -118,-363 -157,-453z"/>
   <path class="fil1" d="M9888 16888c188,-25 300,87 314,261 15,188 -64,330 -230,351 -191,25 -309,-96 -322,-267 -14,-195 62,-322 238,-345zm521 326c20,-290 -174,-468 -449,-483 -298,-17 -503,146 -517,428 -15,308 164,484 455,498 300,15 491,-140 511,-443z"/>
   <path class="fil1" d="M8839 17633l197 0 0 -882 -191 0c-1,76 9,291 -7,351 -20,3 -374,16 -395,-9l-2 -346 -199 1 0 892 201 -2 1 -389 393 4 2 380z"/>
   <path class="fil1" d="M12640 17490l-550 -2 0 -239 499 -4 0 -149 -499 -4 0 -186c10,-10 -7,-14 53,-14l475 0 0 -140 -726 0 0 879 748 0 0 -141z"/>
   <path class="fil3" d="M9888 16888c-176,23 -252,150 -238,345 13,171 131,292 322,267 166,-21 245,-163 230,-351 -14,-174 -126,-286 -314,-261z"/>
   <path class="fil1" d="M11035 17638l193 2 1 -737c36,-20 243,-10 289,-10l0 -142 -779 0 0 142 287 3c24,60 9,631 9,742z"/>
   <path class="fil1" d="M13759 17628l1 -137 -500 -5 0 -732 -197 -1 -2 882c113,1 628,14 698,-7z"/>
   <path class="fil7" d="M14535 14645c-46,25 -154,145 -198,190 -20,21 -85,79 -96,98 -33,54 12,117 76,86 20,-10 167,-163 195,-192 20,-20 85,-79 96,-97 36,-58 -11,-118 -73,-85z"/>
   <path class="fil7" d="M12253 14645c-44,24 -155,146 -198,190 -20,20 -85,79 -96,98 -33,54 11,117 76,86 20,-11 166,-163 195,-192 20,-20 85,-80 96,-98 35,-57 -11,-117 -73,-84z"/>
   <path class="fil7" d="M10040 14644c-74,-22 -92,15 -129,53 -34,34 -62,62 -97,96 -72,73 -203,170 -128,224 60,42 145,-75 220,-150 34,-35 62,-63 97,-97 38,-38 72,-57 37,-126z"/>
   <path class="fil7" d="M7758 14645c-78,-23 -95,18 -134,56 -34,34 -62,62 -96,96 -70,70 -191,160 -129,215 60,54 145,-67 225,-146 110,-109 174,-140 134,-221z"/>
   <path class="fil7" d="M12142 20072l-294 288c-32,53 11,119 76,86l291 -290c36,-56 -10,-116 -73,-84z"/>
   <path class="fil7" d="M10129 20149c33,-53 -29,-119 -89,-70 -26,21 -68,71 -95,98 -31,31 -179,171 -192,195 -28,52 27,110 87,68l289 -291z"/>
   <path class="fil7" d="M10046 11841c34,-45 -17,-118 -79,-79l-291 290c-40,65 25,117 79,79l291 -290z"/>
   <path class="fil7" d="M14545 11757c-33,14 -165,155 -199,190 -31,30 -71,64 -97,96 -48,55 -3,121 58,96l293 -288c46,-53 4,-120 -55,-94z"/>
   <path class="fil7" d="M7763 11841c43,-52 -26,-112 -78,-79l-294 296c-32,55 22,108 78,77l294 -294z"/>
   <path class="fil7" d="M12263 11756l-296 286c-50,59 0,121 58,96l294 -286c48,-55 -2,-119 -56,-96z"/>
   <path class="fil8" d="M9362 11282l992 0 0 1594 -980 0 -12 0 0 -1594zm-3 -8c-10,43 -14,1506 -3,1606 79,11 967,10 1009,-3l-3 -1605 -1003 2z"/>
   <path class="fil7" d="M14692 14858c-83,-33 -117,35 -162,79 -25,26 -139,109 -71,164 55,44 124,-49 151,-75 44,-46 118,-83 82,-168z"/>
   <path class="fil7" d="M12335 14856c-10,7 -189,150 -178,211 6,31 36,57 78,41 5,-2 192,-149 187,-212 -3,-45 -46,-63 -87,-40z"/>
   <path class="fil7" d="M12040 14562c-17,9 -182,146 -178,204 2,39 36,64 83,44 0,0 186,-150 182,-208 -3,-46 -45,-63 -87,-40z"/>
   <path class="fil7" d="M12224 20284c-39,22 -96,90 -133,126 -100,98 -14,145 39,123 18,-8 111,-106 132,-127 21,-20 52,-41 49,-82 -2,-47 -46,-64 -87,-40z"/>
   <path class="fil7" d="M9758 14561c-15,8 -182,147 -179,205 3,39 37,65 84,44 20,-8 111,-105 133,-127 109,-106 13,-150 -38,-122z"/>
   <path class="fil7" d="M14398 14564c-84,-35 -116,34 -162,79 -25,25 -140,109 -71,164 57,45 148,-76 214,-141 34,-33 41,-48 19,-102z"/>
   <path class="fil7" d="M10129 14943c38,-49 -16,-158 -116,-53 -26,27 -120,113 -131,137 -34,68 37,122 112,47l135 -131z"/>
   <path class="fil7" d="M7847 14943c25,-35 8,-86 -30,-95 -46,-11 -66,26 -85,44 -19,17 -123,119 -132,135 -34,59 31,129 112,47l135 -131z"/>
   <path class="fil7" d="M9834 11759c38,-46 -12,-151 -113,-49 -33,34 -224,184 -104,221 44,13 65,-21 83,-40 40,-41 100,-91 134,-132z"/>
   <path class="fil7" d="M11929 19989c-38,26 -97,100 -129,129 -23,21 -52,34 -49,75 2,40 39,65 84,45 0,0 185,-153 182,-208 -3,-44 -50,-68 -88,-41z"/>
   <path class="fil7" d="M10210 20369c35,-45 -14,-154 -104,-59 -42,45 -97,89 -134,134 -48,57 14,149 103,57l135 -132z"/>
   <path class="fil7" d="M7847 12053c36,-42 -11,-153 -112,-47 -31,32 -227,184 -106,220 45,13 65,-21 83,-40 43,-45 97,-89 135,-133z"/>
   <path class="fil7" d="M12413 11976c-83,-37 -113,29 -160,76 -27,27 -125,97 -87,152 51,75 133,-39 157,-63 45,-45 117,-83 90,-165z"/>
   <path class="fil7" d="M7554 11682c-80,-37 -118,32 -161,74 -26,27 -126,98 -86,155 51,71 134,-43 157,-66 23,-24 41,-41 65,-64 36,-34 42,-42 25,-99z"/>
   <path class="fil7" d="M14407 11690c-75,-48 -70,-28 -158,59 -26,26 -121,98 -102,149 38,99 134,-23 154,-43 41,-41 117,-86 106,-165z"/>
   <path class="fil7" d="M7492 14555c-42,17 -102,96 -140,131 -27,25 -58,33 -55,80 3,36 33,62 73,49 6,-2 197,-157 193,-213 -3,-37 -36,-61 -71,-47z"/>
   <path class="fil7" d="M14626 11967c-2,1 -186,157 -186,206 0,44 41,66 80,50 16,-7 111,-108 131,-127 19,-19 53,-42 53,-80 0,-45 -42,-67 -78,-49z"/>
   <path class="fil7" d="M9856 19982c-24,10 -193,162 -196,204 -2,43 31,71 78,54 22,-8 115,-108 139,-131 112,-111 6,-138 -21,-127z"/>
   <path class="fil7" d="M12050 11672c-7,3 -189,157 -188,206 0,36 32,66 74,52 19,-6 119,-112 138,-130 119,-117 12,-145 -24,-128z"/>
   <path class="fil7" d="M9904 12227c61,4 66,-16 95,-46l133 -135c23,-42 1,-77 -34,-83 -51,-9 -124,86 -150,112 -43,43 -110,77 -44,152z"/>
   <path class="fil9" d="M12640 17490l0 141 -748 0 0 -879 726 0 0 140 -475 0c-60,0 -43,4 -53,14 131,-31 401,19 538,-9l-1 -149c-63,-14 -655,-11 -741,-3 -9,88 -11,849 4,898l756 -2 4 -106c-1,-40 -1,-31 -10,-45z"/>
   <path class="fil8" d="M13936 12879c-26,-73 -8,-1401 -8,-1597l995 0c-1,191 15,1532 -9,1597 23,-14 18,16 18,-90 -2,-230 10,-1449 -5,-1517l-1004 3c-14,67 -3,1285 -4,1514 -1,102 -7,81 17,90z"/>
   <path class="fil10" d="M11035 17638c0,-111 15,-682 -9,-742l-287 -3 0 -142 779 0 0 142c-46,0 -253,-10 -289,10l297 -5 -1 -151c-63,-11 -749,-11 -796,1l2 152 293 1 7 731c0,-1 2,4 4,6z"/>
   <path class="fil11" d="M8071 12879c9,-7 14,6 15,-43l-5 -1561c-47,-15 -738,-6 -897,-6 -29,0 -95,-12 -110,14l1003 -4c-2,117 9,1532 -6,1600z"/>
   <path class="fil10" d="M8443 17093c21,25 375,12 395,9 16,-60 6,-275 7,-351l191 0 0 882 -197 0c15,9 -1,5 20,9l179 0c14,-45 13,-814 4,-896 -49,-7 -163,-12 -207,4l0 345 -392 -2z"/>
   <path class="fil12" d="M11654 12879c-21,-63 -8,-671 -8,-789 0,-267 0,-534 0,-801l0 -8 997 0c-7,-4 -6,-6 -22,-9l-478 0c-129,0 -389,-15 -502,3l-5 1561c2,53 -3,30 18,43z"/>
   <path class="fil13" d="M13759 17628c-70,21 -585,8 -698,7l2 -882c-12,14 -7,-3 -12,28 0,1 0,25 0,28 0,159 -8,785 7,833 85,9 412,2 539,2l138 1c37,-7 16,7 24,-17z"/>
   <polygon class="fil14" points="12649,7812 12667,7810 12667,7793 12649,7793 "/>
  </g>
 </g>
</svg>
